<svg aria-hidden="true" style="position:absolute;width:0;height:0" xmlns="http://www.w3.org/2000/svg" overflow="hidden"><defs><symbol id="cart" viewBox="0 0 32 32"><path d="M29.968 9.856L26 18.656a1.314 1.314 0 01-1.12.784l-11.392.752.656 1.888H26.56c1.456 0 2.64 1.184 2.64 2.64s-1.184 2.64-2.64 2.64a2.643 2.643 0 01-2.64-2.64H11.6c0 1.456-1.184 2.64-2.64 2.64s-2.64-1.184-2.64-2.64a2.643 2.643 0 012.64-2.64h2.384L6.256 7.552H3.232c-.72 0-1.312-.576-1.312-1.312s.592-1.328 1.312-1.328H7.2c.576 0 1.056.384 1.248.896L9.216 8h19.536a1.321 1.321 0 011.216 1.856zm-19.824.784l2.432 6.976 11.344-.768 2.8-6.208H10.144z"/></symbol><symbol id="facebook" viewBox="0 0 32 32"><path d="M22.168 2.428v4.546s-3.354-.331-4.193.949c-.452.706-.188 2.759-.221 4.237h4.436c-.375 1.721-.64 2.891-.916 4.392h-3.553v14.124h-6.157V16.607H8.949V12.16h2.582c.143-3.255.188-6.477 1.799-8.11 1.821-1.843 3.553-1.622 8.839-1.622z"/></symbol><symbol id="find" viewBox="0 0 32 32"><path d="M29.304 25.576a2.61 2.61 0 01.776 1.864 2.643 2.643 0 01-2.64 2.64 2.61 2.61 0 01-1.864-.776l-7.744-7.736a10.467 10.467 0 01-5.352 1.472c-5.832 0-10.56-4.728-10.56-10.56S6.648 1.92 12.48 1.92c5.832 0 10.56 4.728 10.56 10.56 0 1.96-.544 3.784-1.472 5.352l7.736 7.744zM12.48 4.56c-4.376 0-7.92 3.544-7.92 7.92s3.544 7.92 7.92 7.92c4.376 0 7.92-3.544 7.92-7.92s-3.544-7.92-7.92-7.92z"/></symbol><symbol id="instagram" viewBox="0 0 32 32"><path d="M27.086 30.629H5.143a3.653 3.653 0 01-3.657-3.657V5.029a3.653 3.653 0 013.657-3.657h21.943a3.653 3.653 0 013.657 3.657v21.943a3.653 3.653 0 01-3.657 3.657zM16.114 10.331a5.664 5.664 0 00-5.143 3.291c-.011.023-.023.046-.023.057a5.356 5.356 0 00-.149.377l-.069.171c-.046.126-.08.263-.114.389-.011.057-.034.126-.046.183-.023.137-.046.274-.069.423 0 .057-.023.114-.023.171a5.668 5.668 0 005.635 6.275 5.668 5.668 0 005.635-6.275c0-.057-.023-.114-.023-.171-.023-.149-.046-.286-.069-.423-.023-.057-.034-.126-.046-.183-.034-.126-.069-.263-.114-.389l-.069-.171c-.046-.126-.091-.251-.149-.377a.184.184 0 00-.023-.057 5.663 5.663 0 00-5.143-3.291zm11.337-4.205c0-.811-.651-1.463-1.463-1.463h-2.926c-.811 0-1.463.651-1.463 1.463v2.926c0 .811.651 1.463 1.463 1.463h2.926c.811 0 1.463-.651 1.463-1.463V6.126zm0 7.497h-2.697a8.96 8.96 0 01-8.64 11.337 8.96 8.96 0 01-8.64-11.337H4.777v12.251c0 .811.651 1.463 1.463 1.463h19.749c.811 0 1.463-.651 1.463-1.463V13.623z"/></symbol><symbol id="pinterest" viewBox="0 0 32 32"><path d="M14.4 19.697c-.232.927-.463 1.887-.706 2.825-.232.938-.441 1.876-.783 2.726-.574 1.423-1.302 2.781-2.262 3.895-.629.728-.497.441-.684.397-.154-.033-.166-.177-.188-.375-.154-1.126-.055-2.428 0-3.686.066-1.446.375-2.637.651-3.84.541-2.273 1.048-4.502 1.589-6.797.033-.154.132-.408.099-.486-.243-.64-.408-1.214-.474-1.876a6.006 6.006 0 01.154-2.152c.298-1.17 1.004-2.196 2.086-2.582.695-.232 1.457-.121 1.92.154.474.276.806.728.949 1.368.166.684.044 1.49-.088 2.086-.287 1.346-.673 2.361-1.026 3.652-.177.651-.375 1.313-.21 1.997.143.64.474 1.081.938 1.412.463.342 1.015.53 1.788.508 1.357-.055 2.295-.916 2.924-1.732 1.004-1.313 1.622-3.079 1.854-5.175.066-.673.121-1.457.077-2.218-.099-1.423-.541-2.56-1.247-3.443-.673-.839-1.622-1.512-2.77-1.887s-2.737-.497-4.138-.254c-2.56.43-4.359 1.887-5.418 3.895-.563 1.048-.927 2.262-.927 3.763 0 1.159.287 2.052.75 2.759.143.221.353.408.497.662.21.353-.022.894-.132 1.28-.121.474-.132 1.114-.673 1.126-.232.011-.519-.154-.706-.265-1.446-.794-2.317-2.24-2.67-4.127a9.662 9.662 0 010-3.564c.21-1.07.596-2.052 1.026-2.847a10.237 10.237 0 013.818-3.939c1.236-.728 2.626-1.236 4.314-1.479a14.719 14.719 0 011.766-.143c1.843-.088 3.52.32 4.778.883a9.696 9.696 0 013.288 2.372c.927 1.015 1.6 2.185 2.03 3.652.221.761.43 1.578.43 2.527 0 .938-.199 1.777-.331 2.615-.53 3.112-2.008 5.672-4.237 7.117a7.038 7.038 0 01-1.942.894c-.728.221-1.567.375-2.472.32-.872-.066-1.589-.298-2.185-.64s-1.103-.75-1.457-1.379z"/></symbol><symbol id="twitter" viewBox="0 0 32 32"><path d="M21.154 4.114c2.331-.046 3.566.811 4.743 1.886 1.006-.091 2.309-.651 3.074-1.04l.754-.411c-.446 1.189-1.04 2.114-1.954 2.823-.194.16-.4.366-.651.469v.011c1.303-.011 2.377-.594 3.394-.914v.011c-.537.846-1.257 1.714-2.034 2.331a59.6 59.6 0 01-.937.743c.011 1.383-.023 2.697-.274 3.863-1.509 6.731-5.474 11.303-11.76 13.269-2.263.697-5.909.994-8.491.354-1.291-.32-2.446-.686-3.531-1.154a14.893 14.893 0 01-1.703-.88c-.171-.103-.354-.217-.526-.32.583.011 1.269.171 1.92.069.583-.091 1.166-.069 1.714-.183 1.36-.297 2.56-.697 3.6-1.303.503-.297 1.269-.64 1.623-1.063-.674.011-1.28-.149-1.783-.32-1.943-.686-3.074-1.954-3.806-3.84.583.057 2.286.217 2.674-.126-.743-.034-1.451-.469-1.954-.789-1.566-.971-2.846-2.606-2.834-5.131.206.091.411.194.617.286.389.171.789.263 1.257.354.206.046.594.16.823.069h-.034c-.297-.343-.789-.583-1.097-.96-.994-1.246-1.943-3.166-1.349-5.44.16-.583.4-1.097.651-1.566.011 0 .023.011.023.011.126.251.377.423.549.629.514.64 1.143 1.211 1.783 1.714 2.194 1.714 4.171 2.766 7.337 3.543.8.194 1.737.354 2.697.354-.274-.789-.183-2.057.023-2.823.537-1.909 1.703-3.291 3.406-4.023.4-.183.857-.309 1.326-.411.251-.034.491-.057.731-.091z"/></symbol></defs></svg>